<svg version="1.2" xmlns="http://www.w3.org/2000/svg" viewBox="0 0 3000 1800" width="3000" height="1800">
	<title>na_feb_36-ai</title>
	<defs>
		<clipPath clipPathUnits="userSpaceOnUse" id="cp1">
			<path d="m1741.3 918.15c-2.16 138.66-171.13 138.64-173.27 0-15.37-141.94 184.05-143.33 173.27 0z"/>
		</clipPath>
		<clipPath clipPathUnits="userSpaceOnUse" id="cp2">
			<path d="m1867.31 1479.78c-195.58 53.35-229.04 56.7-425.31 0 0 0 35.13-304.52 35.13-304.52 16.22-91.6 92.12-115.72 175.08-109.75v-0.05c0.61 0.02 1.84 0.02 2.45 0v0.05c84.3-5.54 160.32 15.94 177.52 109.75z"/>
		</clipPath>
		<clipPath clipPathUnits="userSpaceOnUse" id="cp3">
			<path d="m2188.71 1486.11l-12.53 42.49-10-42.49z"/>
		</clipPath>
		<clipPath clipPathUnits="userSpaceOnUse" id="cp4">
			<path d="m2207.29 1486.12l-22.66 38.07 0.83-43.65z"/>
		</clipPath>
		<clipPath clipPathUnits="userSpaceOnUse" id="cp5">
			<path d="m2218.77 1617.64c-208.05 0.54-141.6 25.54-152.53-226.46h181.4v197.59c0 15.94-12.93 28.87-28.87 28.87z"/>
		</clipPath>
		<clipPath clipPathUnits="userSpaceOnUse" id="cp6">
			<path d="m2409.34 1221.76c-27.34-51.7-106.09-10.49-79.24 41.43z"/>
		</clipPath>
		<clipPath clipPathUnits="userSpaceOnUse" id="cp7">
			<path d="m2578.79 1248.66c17.23-55.89-67.6-82.43-85.32-26.73z"/>
		</clipPath>
		<clipPath clipPathUnits="userSpaceOnUse" id="cp8">
			<path d="m2572.89 1395.04c-2.86 167.79-252.45 167.77-255.29-0.01 2.86-167.78 252.45-167.76 255.29 0.01z"/>
		</clipPath>
	</defs>
	<style>
		.s0 { fill: #dcecfd } 
		.s1 { fill: #bedbfa } 
		.s2 { fill: #f9ce68 } 
		.s3 { fill: #152e60 } 
		.s4 { fill: #324d90 } 
		.s5 { fill: #2a437d } 
		.s6 { fill: #f08f3c } 
		.s7 { fill: #4292f3 } 
		.s8 { fill: #59445a } 
		.s9 { fill: #eda19d } 
		.s10 { fill: #f4d2c6 } 
		.s11 { fill: #3c7ed7 } 
		.s12 { fill: #ffffff } 
		.s13 { opacity: .7;fill: #dcecfd } 
	</style>
	<g id="Layer 1">
		<g id="&lt;Group&gt;">
			<path id="&lt;Path&gt;" class="s0" d="m435.5 1617.6c0 0-250.6-261.3-64.8-608.4 195.9-365.8 563.5-202.4 749-255.8 185.4-53.4 154.9-409.5 636-425.2 858.6-84.7 1039.6 862.2 1003.3 1289.4z"/>
			<path id="&lt;Path&gt;" class="s1" d="m2405.4 1617.6c-34.4-28.5-72-89.9-72-89.9 120 3.7 138.8 39.4 138.8 39.4-58.1-61.9-63.7-163-63.7-163 94.3 4.6 150.1 67.9 150.1 67.9-12.4-115 20.2-171.9 20.2-171.9 110.6 73.9 97.9 192.7 97.9 192.7-3.2-86.3 66.5-155.5 66.5-155.5 13.6 70.7 15.8 280.3 15.8 280.3z"/>
			<g id="&lt;Group&gt;">
				<path id="&lt;Path&gt;" class="s2" d="m1658.4 716.1c-57 0.2-102.3-48.1-99.6-104.9h199.2c2.7 56.8-42.5 105.1-99.6 104.9z"/>
				<g id="&lt;Group&gt;">
					<g id="&lt;Group&gt;">
						<path id="&lt;Path&gt;" class="s3" d="m2501.4 1524c-6.4 0-12.1-4.4-13.5-10.9l-159.8-732.7-662.4-356.2c-6.7-3.6-9.3-12-5.6-18.8 3.6-6.7 12-9.2 18.7-5.6l673.6 362.3 162.5 745.1c2 8.5-4.8 16.9-13.5 16.8z"/>
					</g>
					<path id="&lt;Path&gt;" class="s4" d="m1830.5 648.5h-336.8c-11.8-124.4 22.6-248.1 168.4-253.5 145.8 5.4 180.2 129.2 168.4 253.5z"/>
					<g id="&lt;Group&gt;">
						<path id="&lt;Path&gt;" class="s4" d="m2384.2 781.5c-1.1 67.1-101 67.1-102.1 0 1.1-67.2 101-67.2 102.1 0z"/>
						<path id="&lt;Path&gt;" class="s3" d="m2361.2 781.5c-0.6 36.9-55.5 36.9-56.1 0 0.6-37 55.5-36.9 56.1 0z"/>
					</g>
					<path id="&lt;Path&gt;" class="s3" d="m2337.1 1617.6c35.2-158.8 299.6-159.8 325.4 0z"/>
					<g id="&lt;Group&gt;">
						<path id="&lt;Path&gt;" class="s3" d="m1830.5 611.4h-336.8c-2.2 0-4-1.8-4-4 0-2.3 1.8-4.1 4-4.1h336.8c5.2-0.1 5.4 8.2 0 8.1z"/>
						<path id="&lt;Path&gt;" class="s3" d="m1830.5 583h-336.8c-2.2 0-4-1.8-4-4 0-2.3 1.8-4.1 4-4.1h336.8c5.2-0.1 5.4 8.2 0 8.1z"/>
					</g>
				</g>
			</g>
			<g id="&lt;Group&gt;">
				<g id="&lt;Group&gt;">
					<path id="&lt;Path&gt;" class="s4" d="m1069.6 1617.6h-54.8c-6.4 0-11.5-5.1-11.5-11.5v-352.3c0-6.4 5.1-11.5 11.5-11.5h54.8c6.4 0 11.5 5.1 11.5 11.5v352.3c0 6.4-5.1 11.5-11.5 11.5z"/>
					<g id="&lt;Group&gt;">
						<path id="&lt;Path&gt;" class="s5" d="m1081.1 1308.1h-77.8v-24.6h77.8z"/>
						<path id="&lt;Path&gt;" class="s5" d="m1081.1 1344.4h-77.8v-24.6h77.8z"/>
					</g>
					<g id="&lt;Group&gt;">
						<path id="&lt;Path&gt;" class="s5" d="m1081.1 1531.6h-77.8v-24.6h77.8z"/>
						<path id="&lt;Path&gt;" class="s5" d="m1081.1 1567.9h-77.8v-24.6h77.8z"/>
					</g>
				</g>
				<g id="&lt;Group&gt;">
					<path id="&lt;Path&gt;" class="s5" d="m1168.3 1617.6h-76c-6.2 0-11.2-4.9-11.2-11.1v-241.9c0-6.1 5-11.1 11.2-11.1h76c6.1 0 11.1 5 11.1 11.1v241.9c0 6.2-5 11.1-11.1 11.1z"/>
					<path id="&lt;Path&gt;" class="s4" d="m1179.4 1412.2h-98.3v-20.3h98.3z"/>
					<path id="&lt;Path&gt;" class="s4" d="m1179.4 1574h-98.3v-20.3h98.3z"/>
					<path id="&lt;Path&gt;" class="s4" d="m1163.1 1485.6c-0.8 43.1-64.9 43.1-65.6 0 0.7-43.1 64.8-43.1 65.6 0z"/>
				</g>
				<g id="&lt;Group&gt;">
					<path id="&lt;Path&gt;" class="s2" d="m990.4 1617.6h-72.7c-7.1 0-12.9-5.7-12.9-12.8v-283.9c0-7.1 5.8-12.8 12.9-12.8h72.7c7.1 0 12.9 5.7 12.9 12.8v283.9c0 7.1-5.8 12.8-12.9 12.8z"/>
					<g id="&lt;Group&gt;">
						<path id="&lt;Path&gt;" class="s6" d="m904.8 1344.4c32.6-2.8 65.9-2.8 98.5 0-32.6 2.8-65.9 2.8-98.5 0z"/>
						<path id="&lt;Path&gt;" class="s6" d="m904.8 1372c32.6-2.8 65.9-2.8 98.5 0-32.6 2.9-65.9 2.8-98.5 0z"/>
					</g>
					<g id="&lt;Group&gt;">
						<path id="&lt;Path&gt;" class="s6" d="m904.8 1555.6c32.6-2.8 65.9-2.8 98.5 0-32.6 2.9-65.9 2.9-98.5 0z"/>
						<path id="&lt;Path&gt;" class="s6" d="m904.8 1583.3c32.6-2.9 65.9-2.9 98.5 0-32.6 2.8-65.9 2.8-98.5 0z"/>
					</g>
					<path id="&lt;Path&gt;" class="s6" d="m977.7 1534.5h-42.2v-143.3h42.2z"/>
				</g>
				<g id="&lt;Group&gt;">
					<path id="&lt;Path&gt;" class="s7" d="m828.8 1617.3l-66.5-15.4c-7.8-1.8-12.6-9.5-10.8-17.3l74.3-322.4c1.7-7.8 9.5-12.7 17.3-10.9l66.5 15.3c7.8 1.8 12.7 9.6 10.9 17.4l-74.3 322.4c-1.8 7.8-9.6 12.7-17.4 10.9z"/>
					<path id="&lt;Path&gt;" class="s4" d="m896.3 1312.4l-61.3-14.1 3.9-16.6 61.3 14.1z"/>
					<path id="&lt;Path&gt;" class="s4" d="m890.1 1339.3l-61.3-14.2 3.9-16.6 61.3 14.1z"/>
					<path id="&lt;Path&gt;" class="s4" d="m839.9 1557.2l-61.3-14.1 3.9-16.6 61.3 14.1z"/>
					<path id="&lt;Path&gt;" class="s4" d="m833.7 1584.1l-61.3-14.2 3.9-16.6 61.3 14.1z"/>
					<g id="&lt;Group&gt;">
						<path id="&lt;Path&gt;" class="s4" d="m881.1 1349.4c-11.3 58.5-24.9 117.3-40.3 174.9 11.3-58.5 24.9-117.4 40.3-174.9z"/>
						<path id="&lt;Path&gt;" class="s4" d="m856.4 1345.4c-11.3 58.5-24.8 117.4-40.3 174.9 11.4-58.5 24.9-117.3 40.3-174.9z"/>
						<path id="&lt;Path&gt;" class="s4" d="m831.8 1341.4c-11.3 58.5-24.9 117.4-40.3 174.9 11.3-58.5 24.9-117.3 40.3-174.9z"/>
					</g>
				</g>
			</g>
			<g id="&lt;Group&gt;">
				<g id="&lt;Group&gt;">
					<path id="&lt;Path&gt;" class="s8" d="m1698.3 1009.2l14.1-71.8v71.8h43.9l10.5-72.8 9 72.8h23.8c-1.5-324.4-289.7-307.1-297.6 0h24.1l29.8-48.2-7.4 48.2h106.1z"/>
					<g id="&lt;Group&gt;">
						<g id="&lt;Group&gt;">
							<g id="&lt;Group&gt;">
								<path id="&lt;Path&gt;" class="s9" d="m1581.8 913.8c5.6 35.4-24.1 40.5-30.5 5.2-5.7-35.5 24.1-40.5 30.5-5.2z"/>
								<path id="&lt;Path&gt;" class="s9" d="m1727.5 913.8c-5.6 35.4 24.2 40.5 30.6 5.2 5.6-35.5-24.2-40.5-30.6-5.2z"/>
							</g>
							<g id="&lt;Group&gt;">
								<path id="&lt;Path&gt;" class="s10" d="m1712.4 1129.4c-29 0-86.5 0-115.4 0 0 0 23.6-154.9 12.8-185.8 22.5 0 67.2 0 89.8 0-10.9 30.9 12.8 185.8 12.8 185.8z"/>
								<path id="&lt;Path&gt;" class="s10" d="m1741.3 918.2c-2.2 138.6-171.1 138.6-173.3-0.1-15.3-141.9 184.1-143.3 173.3 0.1z"/>
								<g id="&lt;Clip Group&gt;" clip-path="url(#cp1)">
								</g>
							</g>
						</g>
						<path id="&lt;Path&gt;" class="s9" d="m1611 1009.2c0 0 40.7 31.4 87.3 0l2.5 28.1c0 0-50.2 23.5-92.3 0.3z"/>
					</g>
					<path id="&lt;Path&gt;" class="s8" d="m1672.2 812.8v66.4c0 0-53.6 4.3-103 12-13.8-86 100.5-117.9 103-78.4z"/>
					<path id="&lt;Path&gt;" class="s8" d="m1739.7 891.2c-27.5-11.6-53.9-15.2-53.9-15.2l-14.2-68.4c92.3-14.3 68.1 83.6 68.1 83.6z"/>
				</g>
				<path id="&lt;Path&gt;" class="s7" d="m1867.3 1479.8c-195.6 53.3-229 56.7-425.3 0 0 0 35.1-304.5 35.1-304.5 16.3-91.6 92.2-115.8 175.1-109.8 0.6 0 1.9 0 2.5 0 84.3-5.5 160.3 16 177.5 109.8z"/>
				<g id="&lt;Clip Group&gt;" clip-path="url(#cp2)">
					<path id="&lt;Path&gt;" class="s11" d="m1466.6 1332.1c72.2 40 229.2 135.1 349.4 120.6-179.4 93.2-168 94-356 20.6z"/>
				</g>
				<g id="&lt;Group&gt;">
					<path id="&lt;Path&gt;" class="s10" d="m1585.3 1066.9c8.5 57.1 130.4 56.8 138.7 0 0 0-70.8-5-138.7 0z"/>
					<g id="&lt;Group&gt;">
						<path id="&lt;Path&gt;" class="s12" d="m1654.6 1110.1l-43.7 43.6c0 0-44.5-27.4-37.3-84.4l11.7-2.4z"/>
						<path id="&lt;Path&gt;" class="s12" d="m1724 1066.9l11.7 2.4c7.2 57-37.3 84.4-37.3 84.4l-43.8-43.6z"/>
					</g>
				</g>
				<path id="&lt;Path&gt;" class="s9" d="m1473.4 1267.9l8.4 158.3c-103.7-10.8-55.2-122.6-52-188.3z"/>
				<path id="&lt;Path&gt;" class="s9" d="m1873.5 1242.2c4.1 68.2 50.2 175.8-52.3 192.9l8.7-162.9z"/>
				<g id="&lt;Group&gt;">
					<path id="&lt;Path&gt;" class="s9" d="m1576.4 1617.6h-159.7c1.7-11.6 7.7-23 19.4-27.1l63-23.9c0 0 18.6-22.9 21.2-23.7 17.8-5.5 51.6 15.4 51.6 15.4z"/>
					<path id="&lt;Path&gt;" class="s5" d="m1567.6 1545.3c0 0 280.7-155.4 380.7-141.8 100 13.6 104.3 152.8 18 182.3-86.4 29.6-393.1 31.8-393.1 31.8z"/>
					<path id="&lt;Path&gt;" class="s4" d="m1736.1 1617.6c0 0-306.7-2.2-393.1-31.8-86.4-29.5-82-168.7 18-182.3 100-13.6 380.7 141.8 380.7 141.8z"/>
					<path id="&lt;Path&gt;" class="s10" d="m1740.7 1558.3c0 0 33.7-20.9 51.5-15.4 2.7 0.8 21.3 23.7 21.3 23.7l63 23.9c11.7 4.1 17.7 15.5 19.4 27.1h-159.8z"/>
				</g>
				<g id="&lt;Group&gt;">
					<g id="&lt;Group&gt;">
						<g id="&lt;Group&gt;">
							<path id="&lt;Path&gt;" class="s2" d="m1434.8 1134.2l196.6 82.6v224l-196.6-85.8z"/>
							<path id="&lt;Path&gt;" class="s2" d="m1866.8 1355l-196.6 85.8v-224l196.6-82.6z"/>
							<path id="&lt;Path&gt;" class="s6" d="m1670.2 1440.8h-38.8v-224h38.8z"/>
						</g>
						<path id="&lt;Path&gt;" class="s12" d="m1448.2 1139.8l45.2-10.4 156.5 66.8-18.5 20.6z"/>
						<path id="&lt;Path&gt;" class="s12" d="m1816 1129.5l32.6 12.3-178.4 75-20.3-20.6z"/>
						<path id="&lt;Path&gt;" class="s0" d="m1670.2 1216.8h-38.8l18.5-20.6z"/>
					</g>
					<path id="&lt;Path&gt;" class="s10" d="m1875.7 1229.4c0 0 0 39.7 0 39.7 0.4 6.8-4.6 12.2-9.2 16.6-21.8 10-49.2-10.7-44.6-34.5 1.4-20 29.8-28.7 44-37.3 6 2.8 9.8 8.9 9.8 15.5z"/>
					<path id="&lt;Path&gt;" class="s10" d="m1434.8 1213.9c14.2 8.6 42.7 17.3 44.1 37.3 4.5 23.8-22.8 44.5-44.6 34.5-4.6-4.4-9.7-9.8-9.3-16.6 0 0 0-39.7 0-39.7 0-6.6 3.8-12.7 9.8-15.5z"/>
				</g>
			</g>
			<g id="&lt;Group&gt;">
				<path id="&lt;Path&gt;" class="s12" d="m1898.8 879.1c-86.3 34.6-91.6 66.3-68-37.7-66.4-75.3 25.2-147 131-146.6 266.5 19.2 144.1 241.9-63 184.3z"/>
				<g id="&lt;Group&gt;">
					<path id="&lt;Path&gt;" class="s0" d="m1901.9 789.8c-0.1 18-27.5 18-27.5 0 0-18.1 27.4-18.1 27.5 0z"/>
					<path id="&lt;Path&gt;" class="s0" d="m1982.1 789.8c0 18-27.4 18-27.5 0 0.1-18.1 27.5-18.1 27.5 0z"/>
					<path id="&lt;Path&gt;" class="s0" d="m2062.4 789.8c-0.1 18-27.5 18-27.6 0 0.1-18.1 27.5-18.1 27.6 0z"/>
				</g>
			</g>
			<g id="&lt;Group&gt;">
				<g id="&lt;Group&gt;">
					<g id="&lt;Group&gt;">
						<g id="&lt;Group&gt;">
							<path id="&lt;Path&gt;" class="s3" d="m2181.2 1303.4v182.7h-7.5v-182.7z"/>
							<path id="&lt;Path&gt;" class="s4" d="m2188.7 1303.4v182.7h-7.5v-182.7z"/>
							<path id="&lt;Path&gt;" class="s4" d="m2173.7 1303.4v182.7h-7.5v-182.7z"/>
						</g>
						<path id="&lt;Path&gt;" class="s12" d="m2188.7 1486.1l-12.5 42.5-10-42.5z"/>
						<g id="&lt;Clip Group&gt;" clip-path="url(#cp3)">
							<path id="&lt;Path&gt;" class="s3" d="m2182.6 1511.5v18.7h-13.4v-18.7z"/>
						</g>
						<g id="&lt;Group&gt;">
							<path id="&lt;Path&gt;" class="s2" d="m2188.7 1279v24.4h-22.5v-24.4z"/>
							<path id="&lt;Path&gt;" class="s6" d="m2188.7 1293.1v5.4h-22.5v-5.4z"/>
							<path id="&lt;Path&gt;" class="s6" d="m2188.7 1283.9v5.4h-22.5v-5.4z"/>
						</g>
						<path id="&lt;Path&gt;" class="s12" d="m2188.7 1276.5v2.5h-22.5c-0.9-7 3.8-13.9 11.2-13.8 6.3 0 11.3 5.1 11.3 11.3z"/>
					</g>
					<g id="&lt;Group&gt;">
						<g id="&lt;Group&gt;">
							<path id="&lt;Path&gt;" class="s6" d="m2245.2 1307.2l-45.2 177.1-7.3-1.9 45.3-177z"/>
							<path id="&lt;Path&gt;" class="s2" d="m2252.5 1309.1l-45.2 177-7.3-1.8 45.2-177.1z"/>
							<path id="&lt;Path&gt;" class="s2" d="m2238 1305.4l-45.3 177-7.2-1.9 45.2-177z"/>
						</g>
						<path id="&lt;Path&gt;" class="s12" d="m2207.3 1486.1l-22.7 38.1 0.9-43.7z"/>
						<g id="&lt;Clip Group&gt;" clip-path="url(#cp4)">
							<path id="&lt;Path&gt;" class="s3" d="m2195 1509.2l-4.6 18.2-12.9-3.3 4.6-18.2z"/>
						</g>
						<g id="&lt;Group&gt;">
							<path id="&lt;Path&gt;" class="s4" d="m2258.5 1285.5l-6 23.6-21.8-5.6 6-23.6z"/>
							<path id="&lt;Path&gt;" class="s3" d="m2255.1 1299.1l-1.4 5.3-21.8-5.6 1.3-5.3z"/>
							<path id="&lt;Path&gt;" class="s3" d="m2257.3 1290.2l-1.3 5.2-21.8-5.5 1.3-5.3z"/>
						</g>
						<path id="&lt;Path&gt;" class="s12" d="m2259.2 1283l-0.7 2.5-21.8-5.6c1.9-16.4 25.7-13.1 22.5 3.1z"/>
					</g>
					<path id="&lt;Path&gt;" class="s12" d="m2218.8 1617.6c-208.1 0.6-141.6 25.6-152.6-226.4h181.4v197.6c0 15.9-12.9 28.8-28.8 28.8z"/>
					<g id="&lt;Clip Group&gt;" clip-path="url(#cp5)">
					</g>
					<g id="&lt;Group&gt;">
						<path id="&lt;Path&gt;" class="s1" d="m2142.3 1391.2h-59.9v-183h59.9z"/>
						<g id="&lt;Group&gt;">
							<path id="&lt;Path&gt;" class="s0" d="m2105.1 1240.9h-22.7v-8.7h22.7z"/>
							<path id="&lt;Path&gt;" class="s0" d="m2105.1 1260.6h-22.7v-8.6h22.7z"/>
							<path id="&lt;Path&gt;" class="s0" d="m2105.1 1280.4h-22.7v-8.7h22.7z"/>
							<path id="&lt;Path&gt;" class="s0" d="m2105.1 1300.1h-22.7v-8.6h22.7z"/>
							<path id="&lt;Path&gt;" class="s0" d="m2105.1 1319.9h-22.7v-8.7h22.7z"/>
							<path id="&lt;Path&gt;" class="s0" d="m2105.1 1339.6h-22.7v-8.6h22.7z"/>
							<path id="&lt;Path&gt;" class="s0" d="m2105.1 1359.4h-22.7v-8.7h22.7z"/>
							<path id="&lt;Path&gt;" class="s0" d="m2105.1 1379.2h-22.7v-8.7h22.7z"/>
						</g>
						<path id="&lt;Path&gt;" class="s12" d="m2132.7 1218.3h9.6v172.9h-9.6z"/>
					</g>
				</g>
				<path id="&lt;Path&gt;" class="s1" d="m2247.6 1444.5h-181.4v-21.7h181.4z"/>
				<path id="&lt;Path&gt;" class="s1" d="m2247.6 1484.1h-181.4v-21.8h181.4z"/>
			</g>
			<g id="&lt;Group&gt;">
				<g id="&lt;Group&gt;">
					<path id="&lt;Path&gt;" class="s12" d="m591.7 1366.6h-31.9c-30.7-224.7-171.9-535.2-171.9-535.2 138.4 234 203.8 535.2 203.8 535.2z"/>
					<path id="&lt;Path&gt;" class="s1" d="m438.1 816.5c2-29-10-72.9 61.9-80.9 72-8 80.9 84.9 80.9 84.9-24.9-15-69.9-18-69.9-18 128 16.6 66.8 197 55 245.7l-98.9-66.9c0 0 84.9 73.9 82.9 84.9-2 11-149.8 218.7-149.8 218.7 0 0-70-93.9-71-100.8-1-7 32-65 32-65l-46.9 44c-45.9-99.6-86.7-130.6-14-244.7l-60 55.9c-98-244.5 214.8-333.7 166.8-186.8-35.9 59 0 83.9 0 83.9 0 0 29-25.9 31-54.9z"/>
					<path id="&lt;Path&gt;" class="s1" d="m781.6 736.9c-0.9-28.5 49.9-92 80.1-86.8 30.3 5.3 57 99.9 57 99.9l-61.8-14.4 65.3 26.3c14 31.9 7 101.2 7 101.2l-75.4-40.3c0 0 68.4 53 68.8 70.5 0.5 17.5-74.9 117-74.9 117l-58.7-40.4c0 0 41.6 50.9 41.2 58.3-0.4 7.5-69.2 103.4-69.2 103.4 0 0-57.4-65.7-59.2-72.7-1.7-7 15.8-55.2 15.8-55.2l-31.1 37.2c0 0-70.1-148.5-68.8-172.1 1.3-23.7 47.8-61.8 47.8-61.8l-55.7 18.4c-10-232.6 199.4-223.1 150.3-88.9-11 23.6 8.8 41.6 8.8 41.6 0 0 13.5-12.7 12.7-41.2z"/>
					<path id="&lt;Path&gt;" class="s12" d="m559.8 1366.6c0 0 29.3-353 209.1-588.5 0 0-161.9 331.7-177.2 588.5z"/>
				</g>
				<path id="&lt;Path&gt;" class="s1" d="m738.4 1366.6l-47.4 228c-2.5 11.9-13 20.5-25.2 20.5h-89.6-89.6c-12.2 0-22.7-8.6-25.2-20.5l-47.4-228h162.2z"/>
			</g>
			<g id="&lt;Group&gt;">
				<g id="&lt;Group&gt;">
					<path id="&lt;Path&gt;" class="s6" d="m2352.6 1620.1h-20.6l64.3-107.2h20.6z"/>
					<path id="&lt;Path&gt;" class="s6" d="m2477.1 1512.9h20.6l64.3 107.2h-20.6z"/>
				</g>
				<g id="&lt;Group&gt;">
					<path id="&lt;Path&gt;" class="s4" d="m2394.5 1271.1l-15.4 8.1-38.5-73.7c-2.3-4.2-0.6-9.5 3.6-11.7 4.3-2.3 9.6-0.6 11.8 3.6z"/>
					<path id="&lt;Path&gt;" class="s6" d="m2409.3 1221.8c-27.3-51.7-106.1-10.5-79.2 41.4z"/>
					<g id="&lt;Clip Group&gt;" clip-path="url(#cp6)">
						<path id="&lt;Path&gt;" class="s2" d="m2386.9 1195.7c0 0-23.7 45.3-63.9 65.7-30.3-50.3 29.6-74.8 63.9-65.7z"/>
					</g>
				</g>
				<g id="&lt;Group&gt;">
					<path id="&lt;Path&gt;" class="s4" d="m2533.5 1273.1l-16.7-5.3 24.8-79.2c1.5-4.6 6.4-7.2 11-5.8 4.6 1.5 7.1 6.4 5.7 11z"/>
					<path id="&lt;Path&gt;" class="s6" d="m2578.8 1248.7c17.2-55.9-67.6-82.5-85.3-26.8z"/>
					<g id="&lt;Clip Group&gt;" clip-path="url(#cp7)">
						<path id="&lt;Path&gt;" class="s2" d="m2581.4 1214.3c0 0-48.9 15.3-91.7 1.4 14.1-57.1 73.8-32 91.7-1.4z"/>
					</g>
				</g>
				<g id="&lt;Group&gt;">
					<path id="&lt;Path&gt;" class="s6" d="m2464.3 1550c-203.6-3.7-203.6-306.3 0-309.9 203.6 3.7 203.5 306.2 0 309.9z"/>
					<path id="&lt;Path&gt;" class="s2" d="m2445.2 1550c-203.6-3.7-203.5-306.3 0.1-309.9 203.5 3.7 203.5 306.2-0.1 309.9z"/>
					<path id="&lt;Path&gt;" class="s12" d="m2572.9 1395c-2.9 167.8-252.5 167.8-255.3 0 2.9-167.8 252.5-167.7 255.3 0z"/>
					<g id="&lt;Clip Group&gt;" clip-path="url(#cp8)">
						<path id="&lt;Path&gt;" class="s13" d="m2516.6 1267.4c69.7 158.5-110.3 252.1-222.9 167.4 105.7 252.2 453.5 23.3 222.9-167.4z"/>
					</g>
					<path id="&lt;Path&gt;" class="s4" d="m2460.4 1368.8l-10.4 21.3-10.4-21.3 10.4-60.2z"/>
					<path id="&lt;Path&gt;" class="s4" d="m2467.2 1413.4l-9-14.7 16.5-4.7 32.2 23.7z"/>
					<path id="&lt;Path&gt;" class="s3" d="m2466.9 1394c-0.3 22.3-33.4 22.3-33.8 0 0.4-22.2 33.5-22.2 33.8 0z"/>
					<g id="&lt;Group&gt;">
						<path id="&lt;Compound Path&gt;" class="s4" d="m2446.9 1505.3c-2 0-4-0.2-5.9-0.3l0.8-10q2.6 0.2 5.2 0.3c-0.2 2.4-0.2 7.6-0.1 10zm19.1-1.6l-1.7-9.9q2.6-0.4 5.1-1l2.2 9.7q-2.8 0.7-5.6 1.2zm-43.8-1.5q-2.8-0.6-5.6-1.3l2.6-9.7q2.5 0.7 5.1 1.3zm67.7-5.6l-3.8-9.2q2.4-1 4.7-2.2l4.4 9q-2.6 1.3-5.3 2.4zm-91.3-2.3q-2.6-1.2-5.1-2.5l4.6-8.9q2.3 1.2 4.7 2.3zm113-9.9l-5.8-8.1q2.1-1.5 4.2-3.2l6.2 7.9q-2.2 1.8-4.6 3.4zm-134.4-3q-2.2-1.8-4.4-3.7l6.6-7.5q1.9 1.7 4 3.3zm152.9-13.6l-7.5-6.7q1.7-1.9 3.4-4l7.8 6.3q-1.8 2.2-3.7 4.4zm-170.6-4q-1.8-2.3-3.4-4.7l8.2-5.7q1.5 2.1 3.1 4.2zm184.9-16.4l-8.8-4.8q1.3-2.3 2.4-4.7l9 4.4q-1.2 2.6-2.6 5.1zm-197.9-4.9q-1.2-2.6-2.3-5.3l9.3-3.7q1 2.4 2.1 4.8zm207.3-18.1l-9.6-2.8q0.7-2.5 1.3-5l9.7 2.2q-0.6 2.8-1.4 5.6zm-215.2-5.5q-0.6-2.9-1.1-5.7l9.9-1.6q0.4 2.6 1 5.2zm219.2-19.1l-9.9-0.5q0.1-2.8 0.1-5.5h10q0 3-0.2 6zm-211.8-5.7h-10q0-2.8 0.1-5.7l10 0.5q-0.1 2.6-0.1 5.2zm200.5-17.7q-0.5-2.6-1.1-5.2l9.8-2.2q0.6 2.8 1.1 5.6zm-198.1-4.8l-9.8-2.1q0.6-2.9 1.3-5.6l9.7 2.5q-0.7 2.6-1.2 5.2zm191.7-16.9q-1-2.4-2.2-4.8l9-4.3q1.3 2.6 2.4 5.2zm-184.6-4.7l-9.1-4.2q1.2-2.6 2.5-5.1l8.9 4.6q-1.2 2.3-2.3 4.7zm173.5-15.1q-1.5-2.1-3.2-4.1l7.8-6.3q1.8 2.3 3.5 4.6zm-161.8-4.3l-7.8-6.1q1.7-2.3 3.6-4.5l7.6 6.6q-1.7 1.9-3.4 4zm146.6-12.5q-2-1.7-4-3.4l6.2-7.8q2.3 1.8 4.4 3.7zm-130.6-3.5l-6.2-7.8q2.3-1.8 4.7-3.5l5.7 8.2q-2.1 1.5-4.2 3.1zm112-9.5q-2.3-1.3-4.6-2.4l4.3-9q2.6 1.2 5.1 2.6zm-92.7-2.2l-4.2-9.1q2.6-1.2 5.3-2.3l3.7 9.3q-2.4 1-4.8 2.1zm71.7-6.4q-2.5-0.7-5.1-1.2l2.2-9.8q2.9 0.6 5.6 1.4zm-50.1-0.8l-2.2-9.8q2.8-0.6 5.6-1.1l1.7 9.8q-2.6 0.5-5.1 1.1zm27.7-2.8q-2.5-0.2-5-0.2 0 0 0 0c0-0.2-0.4-9.7-0.4-9.9 2-0.1 4 0 5.9 0.1z"/>
					</g>
				</g>
			</g>
			<path id="&lt;Path&gt;" class="s3" d="m316.8 1617.6c825.8-5.8 1671.5-5.8 2497.3 0-825.8 5.9-1671.5 5.8-2497.3 0z"/>
		</g>
	</g>
</svg>